<mxfile host="app.diagrams.net" modified="2022-03-06T16:03:12.740Z" agent="5.0 (Macintosh; Intel Mac OS X 10_15_7) AppleWebKit/605.1.15 (KHTML, like Gecko) Version/15.3 Safari/605.1.15" etag="WcxnDFMX3KqE-Jfqr80K" version="16.6.4" type="github">
  <diagram name="Page-1" id="13e1069c-82ec-6db2-03f1-153e76fe0fe0">
    <mxGraphModel dx="989" dy="731" grid="1" gridSize="10" guides="1" tooltips="1" connect="1" arrows="1" fold="1" page="1" pageScale="1" pageWidth="1100" pageHeight="850" background="none" math="0" shadow="0">
      <root>
        <mxCell id="0" />
        <mxCell id="1" parent="0" />
        <mxCell id="kd9hnM9UEGJ-Ht8Q5I6m-1" value="Student&lt;br&gt;" style="shape=umlActor;verticalLabelPosition=bottom;verticalAlign=top;html=1;outlineConnect=0;" vertex="1" parent="1">
          <mxGeometry x="180" y="90" width="30" height="60" as="geometry" />
        </mxCell>
        <mxCell id="kd9hnM9UEGJ-Ht8Q5I6m-2" value="Cinema Manager&lt;br&gt;" style="shape=umlActor;verticalLabelPosition=bottom;verticalAlign=top;html=1;outlineConnect=0;" vertex="1" parent="1">
          <mxGeometry x="180" y="470" width="30" height="60" as="geometry" />
        </mxCell>
        <mxCell id="kd9hnM9UEGJ-Ht8Q5I6m-3" value="University Club (Club Rep)" style="shape=umlActor;verticalLabelPosition=bottom;verticalAlign=top;html=1;outlineConnect=0;" vertex="1" parent="1">
          <mxGeometry x="180" y="240" width="30" height="60" as="geometry" />
        </mxCell>
        <mxCell id="kd9hnM9UEGJ-Ht8Q5I6m-4" value="Purchase tickets" style="ellipse;whiteSpace=wrap;html=1;" vertex="1" parent="1">
          <mxGeometry x="330" y="90" width="120" height="80" as="geometry" />
        </mxCell>
        <mxCell id="kd9hnM9UEGJ-Ht8Q5I6m-5" value="Purchase block of&lt;span style=&quot;color: rgba(0 , 0 , 0 , 0) ; font-family: monospace ; font-size: 0px&quot;&gt;%3CmxGraphModel%3E%3Croot%3E%3CmxCell%20id%3D%220%22%2F%3E%3CmxCell%20id%3D%221%22%20parent%3D%220%22%2F%3E%3CmxCell%20id%3D%222%22%20value%3D%22Purchase%20tickets%22%20style%3D%22ellipse%3BwhiteSpace%3Dwrap%3Bhtml%3D1%3B%22%20vertex%3D%221%22%20parent%3D%221%22%3E%3CmxGeometry%20x%3D%22330%22%20y%3D%2290%22%20width%3D%22120%22%20height%3D%2280%22%20as%3D%22geometry%22%2F%3E%3C%2FmxCell%3E%3C%2Froot%3E%3C%2FmxGraphModel%3E&lt;/span&gt;&lt;br&gt;&amp;nbsp;tickets" style="ellipse;whiteSpace=wrap;html=1;" vertex="1" parent="1">
          <mxGeometry x="330" y="230" width="120" height="80" as="geometry" />
        </mxCell>
        <mxCell id="kd9hnM9UEGJ-Ht8Q5I6m-6" value="Register Clubs&lt;br&gt;&amp;nbsp;and Reps" style="ellipse;whiteSpace=wrap;html=1;" vertex="1" parent="1">
          <mxGeometry x="330" y="460" width="120" height="80" as="geometry" />
        </mxCell>
        <mxCell id="kd9hnM9UEGJ-Ht8Q5I6m-7" value="Add Film" style="ellipse;whiteSpace=wrap;html=1;" vertex="1" parent="1">
          <mxGeometry x="330" y="570" width="120" height="80" as="geometry" />
        </mxCell>
      </root>
    </mxGraphModel>
  </diagram>
</mxfile>
